<?xml version="1.0" encoding="UTF-8" standalone="no"?>
<svg xmlns:svg="http://www.w3.org/2000/svg" xmlns="http://www.w3.org/2000/svg" version="1.0" width="167.23248" height="219.70256" id="svg2211">
  <defs id="defs2214"/>
  <path d="M 150.54868,0.015056147 L 10.329932,0.17130615 C 3.8163119,2.6881331 2.1007619,5.0270751 0.048681945,11.390057 L 0.048681945,157.20256 C -0.57122805,169.72371 4.7920719,168.75544 12.548682,168.98381 L 153.11118,169.10881 C 164.83393,168.99343 168.09516,169.03189 167.04868,152.60881 L 167.04868,16.983807 C 167.24098,11.481402 167.4333,-0.48254085 150.54868,0.015056147 z M 12.923682,7.1088061 L 154.20493,7.1088061 C 157.6913,8.2874921 159.48538,9.3123321 160.04868,12.952557 L 160.04868,154.20256 C 159.92658,161.15631 157.66409,161.67536 153.20493,162.10881 L 12.548682,162.04631 C 8.6414419,162.04258 6.1484219,160.951 6.0486819,154.20256 L 6.0486819,14.983807 C 7.2634219,11.43573 6.1704619,9.8876531 12.923682,7.1088061 z M 77.704927,27.140057 C 74.601977,27.136005 71.480367,27.171618 68.361177,27.265057 C 65.816697,27.648509 63.988207,28.036677 61.923677,29.140057 C 59.795237,30.50704 58.654697,32.015606 57.486177,33.702557 C 52.364607,42.608729 47.881527,50.897605 43.079927,59.483807 L 67.454927,72.671307 L 83.392427,45.640057 L 89.361177,56.140057 L 78.798677,62.483807 L 79.579927,66.390057 L 111.64243,66.390057 L 127.76743,38.608807 L 124.86118,35.765057 L 114.17368,41.577557 L 105.54868,27.577557 C 96.251092,27.497909 87.013755,27.152211 77.704927,27.140057 z M 69.736177,31.390057 C 71.646457,31.338453 73.257127,31.490415 75.111177,31.483807 L 80.798677,41.327557 L 65.704927,66.983807 L 48.892427,57.671307 C 53.328917,49.970148 60.648147,36.328068 62.204927,34.546307 C 63.720597,32.893956 65.229357,32.047523 67.704927,31.515057 C 68.422927,31.432862 69.099407,31.407258 69.736177,31.390057 z M 80.048677,31.452557 L 103.14243,31.796307 L 112.54868,47.827557 L 119.14243,44.046307 L 109.23618,62.171307 L 87.423677,62.171307 L 95.517427,57.983807 L 80.048677,31.452557 z M 125.11118,61.733807 L 100.54868,75.733807 L 116.32993,103.10881 L 104.11118,103.10881 L 104.11118,90.608805 L 100.01743,89.765055 L 84.361177,117.23381 L 100.26743,145.20256 L 104.11118,143.89006 L 104.11118,131.39006 L 121.36118,131.39006 C 127.59906,120.65937 133.84204,109.902 140.07993,99.171305 C 140.73342,97.666345 141.24639,96.187475 141.57993,94.202555 C 141.79243,92.579095 141.67482,91.330945 140.76743,88.827555 C 140.03184,87.069215 130.32632,70.771412 125.11118,61.733807 z M 123.32993,67.608807 C 127.95839,75.512549 136.89602,89.711925 137.20493,91.296305 C 137.60487,92.583915 137.60488,93.883705 137.20493,95.171305 C 136.20982,97.233575 134.5825,100.25409 133.26743,102.79631 L 121.26743,103.07756 L 106.82993,77.421307 L 123.32993,67.608807 z M 21.767427,68.202557 L 21.173677,72.077557 L 31.517427,78.046307 L 23.329927,93.171305 L 41.642427,125.67131 C 42.462917,127.06502 43.689457,128.43502 44.829927,129.10881 C 47.074447,130.57164 48.357807,131.09587 49.642427,131.35881 C 60.533107,131.84758 71.099237,131.38125 81.829927,131.39006 L 81.829927,103.10881 L 50.298677,103.10881 L 56.111177,92.233805 L 66.923677,98.452555 L 69.767427,95.577555 L 53.861177,68.233807 L 21.767427,68.202557 z M 30.392427,72.421307 L 51.423677,72.702557 L 61.579927,90.577555 L 54.454927,86.952555 L 39.423677,112.60881 L 28.298677,93.140055 L 37.329927,76.921307 L 30.392427,72.421307 z M 99.923677,99.327555 L 99.892427,107.29631 L 130.17368,107.29631 L 118.98618,127.17131 L 99.892427,127.17131 L 99.892427,135.07756 L 89.236177,117.39006 L 99.923677,99.327555 z M 47.673677,107.29631 L 77.642427,107.29631 L 77.642427,127.17131 C 68.516327,127.16981 59.393537,127.57277 50.267427,127.17131 C 48.881727,126.93515 47.555647,126.12111 46.329927,124.76506 C 44.527937,122.3306 43.544457,119.91827 42.142427,117.48381 L 47.673677,107.29631 z M 46.267427,179.20256 L 46.267427,186.48381 L 54.236177,186.48381 L 54.236177,179.20256 L 46.267427,179.20256 z M 5.7986819,179.51506 L 5.7986819,219.70256 L 13.642432,219.70256 L 13.642432,190.73381 L 30.204927,219.70256 L 38.579927,219.70256 L 38.579927,179.51506 L 30.736177,179.51506 L 30.736177,207.70256 L 14.579927,179.51506 L 5.7986819,179.51506 z M 80.486177,179.51506 L 80.486177,219.70256 L 88.329927,219.70256 L 88.329927,185.17131 L 95.861177,219.70256 L 104.11118,219.70256 L 111.64243,185.92131 L 111.64243,219.70256 L 119.48618,219.70256 L 119.48618,179.51506 L 107.32993,179.51506 L 100.11118,211.35881 L 92.798677,179.51506 L 80.486177,179.51506 z M 127.29868,179.51506 L 127.29868,219.70256 L 135.70493,219.70256 L 135.70493,201.48381 L 151.42368,201.48381 L 151.42368,219.70256 L 159.79868,219.70256 L 159.79868,179.51506 L 151.42368,179.51506 L 151.42368,194.57756 L 135.70493,194.57756 L 135.70493,179.51506 L 127.29868,179.51506 z M 46.329927,189.95256 L 46.329927,219.70256 L 54.173677,219.70256 L 54.173677,189.95256 L 46.329927,189.95256 z M 59.423677,200.32756 L 59.423677,207.70256 L 75.079927,207.70256 L 75.079927,200.32756 L 59.423677,200.32756 z " style="fill:#000000" id="path2208"/>
</svg>