<?xml version="1.0" encoding="UTF-8"?>
<svg width="167.232pt" version="1.1" xmlns="http://www.w3.org/2000/svg" height="219.703pt" viewBox="0 0 167.232 219.703" xmlns:xlink="http://www.w3.org/1999/xlink">
 <defs/>
 <g id="Background">
  <g transform="translate(0.428772, 43.5175)">
   <path style="fill:#000000; fill-rule:nonzero;" d="M151.12 0.497597 L10.9012 0.653847 C4.38754 3.17067 2.67199 5.50962 0.61991 11.8726 L0.61991 157.685 C0 170.206 5.3633 169.238 13.1199 169.466 L153.682 169.591 C165.405 169.476 168.666 169.514 167.62 153.091 L167.62 17.4663 C167.812 11.9639 168.005 0 151.12 0.497597 Z M13.4949 7.59135 L154.776 7.59135 C158.263 8.77003 160.057 9.79487 160.62 13.4351 L160.62 154.685 C160.498 161.639 158.235 162.158 153.776 162.591 L13.1199 162.529 C9.21267 162.525 6.71965 161.434 6.61991 154.685 L6.61991 15.4663 C7.83465 11.9183 6.74169 10.3702 13.4949 7.59135 Z M78.2762 27.6226 C75.1732 27.6185 72.0516 27.6542 68.9324 27.7476 C66.3879 28.131 64.5594 28.5192 62.4949 29.6226 C60.3665 30.9896 59.2259 32.4981 58.0574 34.1851 C52.9358 43.0913 48.4528 51.3801 43.6512 59.9663 L68.0262 73.1538 L83.9637 46.1226 L89.9324 56.6226 L79.3699 62.9663 L80.1512 66.8726 L112.214 66.8726 L128.339 39.0913 L125.432 36.2476 L114.745 42.0601 L106.12 28.0601 C96.8223 27.9804 87.585 27.6348 78.2762 27.6226 Z M70.3074 31.8726 C72.2177 31.821 73.8284 31.973 75.6824 31.9663 L81.3699 41.8101 L66.2762 67.4663 L49.4637 58.1538 C53.9001 50.4527 61.2194 36.8106 62.7762 35.0288 C64.2918 33.3765 65.8006 32.5301 68.2762 31.9976 C68.9942 31.9154 69.6706 31.8898 70.3074 31.8726 Z M80.6199 31.9351 L103.714 32.2788 L113.12 48.3101 L119.714 44.5288 L109.807 62.6538 L87.9949 62.6538 L96.0887 58.4663 L80.6199 31.9351 Z M125.682 62.2163 L101.12 76.2163 L116.901 103.591 L104.682 103.591 L104.682 91.0913 L100.589 90.2476 L84.9324 117.716 L100.839 145.685 L104.682 144.373 L104.682 131.873 L121.932 131.873 C128.17 121.142 134.413 110.385 140.651 99.6538 C141.305 98.1489 141.818 96.67 142.151 94.6851 C142.364 93.0616 142.246 91.8135 141.339 89.3101 C140.603 87.5518 130.898 71.254 125.682 62.2163 Z M123.901 68.0913 C128.53 75.9951 137.467 90.1945 137.776 91.7788 C138.176 93.0665 138.176 94.3662 137.776 95.6538 C136.781 97.7161 135.154 100.737 133.839 103.279 L121.839 103.56 L107.401 77.9038 L123.901 68.0913 Z M22.3387 68.6851 L21.7449 72.5601 L32.0887 78.5288 L23.9012 93.6538 L42.2137 126.154 C43.0341 127.548 44.2607 128.918 45.4012 129.591 C47.6457 131.054 48.929 131.578 50.2137 131.841 C61.1043 132.33 71.6705 131.864 82.4012 131.873 L82.4012 103.591 L50.8699 103.591 L56.6824 92.7163 L67.4949 98.9351 L70.3387 96.0601 L54.4324 68.7163 L22.3387 68.6851 Z M30.9637 72.9038 L51.9949 73.1851 L62.1512 91.0601 L55.0262 87.4351 L39.9949 113.091 L28.8699 93.6226 L37.9012 77.4038 L30.9637 72.9038 Z M100.495 99.8101 L100.464 107.779 L130.745 107.779 L119.557 127.654 L100.464 127.654 L100.464 135.56 L89.8074 117.873 L100.495 99.8101 Z M48.2449 107.779 L78.2137 107.779 L78.2137 127.654 C69.0876 127.652 59.9648 128.055 50.8387 127.654 C49.453 127.418 48.1269 126.604 46.9012 125.248 C45.0992 122.813 44.1157 120.401 42.7137 117.966 L48.2449 107.779 Z M46.8387 179.685 L46.8387 186.966 L54.8074 186.966 L54.8074 179.685 L46.8387 179.685 Z M6.36991 179.998 L6.36991 220.185 L14.2137 220.185 L14.2137 191.216 L30.7762 220.185 L39.1512 220.185 L39.1512 179.998 L31.3074 179.998 L31.3074 208.185 L15.1512 179.998 L6.36991 179.998 Z M81.0574 179.998 L81.0574 220.185 L88.9012 220.185 L88.9012 185.654 L96.4324 220.185 L104.682 220.185 L112.214 186.404 L112.214 220.185 L120.057 220.185 L120.057 179.998 L107.901 179.998 L100.682 211.841 L93.3699 179.998 L81.0574 179.998 Z M127.87 179.998 L127.87 220.185 L136.276 220.185 L136.276 201.966 L151.995 201.966 L151.995 220.185 L160.37 220.185 L160.37 179.998 L151.995 179.998 L151.995 195.06 L136.276 195.06 L136.276 179.998 L127.87 179.998 Z M46.9012 190.435 L46.9012 220.185 L54.7449 220.185 L54.7449 190.435 L46.9012 190.435 Z M59.9949 200.81 L59.9949 208.185 L75.6512 208.185 L75.6512 200.81 L59.9949 200.81 Z"/>
   <path style="fill:none; stroke:none;" d="M151.12 0.497597 L10.9012 0.653847 C4.38754 3.17067 2.67199 5.50962 0.61991 11.8726 L0.61991 157.685 C0 170.206 5.3633 169.238 13.1199 169.466 L153.682 169.591 C165.405 169.476 168.666 169.514 167.62 153.091 L167.62 17.4663 C167.812 11.9639 168.005 0 151.12 0.497597 Z M13.4949 7.59135 L154.776 7.59135 C158.263 8.77003 160.057 9.79487 160.62 13.4351 L160.62 154.685 C160.498 161.639 158.235 162.158 153.776 162.591 L13.1199 162.529 C9.21267 162.525 6.71965 161.434 6.61991 154.685 L6.61991 15.4663 C7.83465 11.9183 6.74169 10.3702 13.4949 7.59135 Z M78.2762 27.6226 C75.1732 27.6185 72.0516 27.6542 68.9324 27.7476 C66.3879 28.131 64.5594 28.5192 62.4949 29.6226 C60.3665 30.9896 59.2259 32.4981 58.0574 34.1851 C52.9358 43.0913 48.4528 51.3801 43.6512 59.9663 L68.0262 73.1538 L83.9637 46.1226 L89.9324 56.6226 L79.3699 62.9663 L80.1512 66.8726 L112.214 66.8726 L128.339 39.0913 L125.432 36.2476 L114.745 42.0601 L106.12 28.0601 C96.8223 27.9804 87.585 27.6348 78.2762 27.6226 Z M70.3074 31.8726 C72.2177 31.821 73.8284 31.973 75.6824 31.9663 L81.3699 41.8101 L66.2762 67.4663 L49.4637 58.1538 C53.9001 50.4527 61.2194 36.8106 62.7762 35.0288 C64.2918 33.3765 65.8006 32.5301 68.2762 31.9976 C68.9942 31.9154 69.6706 31.8898 70.3074 31.8726 Z M80.6199 31.9351 L103.714 32.2788 L113.12 48.3101 L119.714 44.5288 L109.807 62.6538 L87.9949 62.6538 L96.0887 58.4663 L80.6199 31.9351 Z M125.682 62.2163 L101.12 76.2163 L116.901 103.591 L104.682 103.591 L104.682 91.0913 L100.589 90.2476 L84.9324 117.716 L100.839 145.685 L104.682 144.373 L104.682 131.873 L121.932 131.873 C128.17 121.142 134.413 110.385 140.651 99.6538 C141.305 98.1489 141.818 96.67 142.151 94.6851 C142.364 93.0616 142.246 91.8135 141.339 89.3101 C140.603 87.5518 130.898 71.254 125.682 62.2163 Z M123.901 68.0913 C128.53 75.9951 137.467 90.1945 137.776 91.7788 C138.176 93.0665 138.176 94.3662 137.776 95.6538 C136.781 97.7161 135.154 100.737 133.839 103.279 L121.839 103.56 L107.401 77.9038 L123.901 68.0913 Z M22.3387 68.6851 L21.7449 72.5601 L32.0887 78.5288 L23.9012 93.6538 L42.2137 126.154 C43.0341 127.548 44.2607 128.918 45.4012 129.591 C47.6457 131.054 48.929 131.578 50.2137 131.841 C61.1043 132.33 71.6705 131.864 82.4012 131.873 L82.4012 103.591 L50.8699 103.591 L56.6824 92.7163 L67.4949 98.9351 L70.3387 96.0601 L54.4324 68.7163 L22.3387 68.6851 Z M30.9637 72.9038 L51.9949 73.1851 L62.1512 91.0601 L55.0262 87.4351 L39.9949 113.091 L28.8699 93.6226 L37.9012 77.4038 L30.9637 72.9038 Z M100.495 99.8101 L100.464 107.779 L130.745 107.779 L119.557 127.654 L100.464 127.654 L100.464 135.56 L89.8074 117.873 L100.495 99.8101 Z M48.2449 107.779 L78.2137 107.779 L78.2137 127.654 C69.0876 127.652 59.9648 128.055 50.8387 127.654 C49.453 127.418 48.1269 126.604 46.9012 125.248 C45.0992 122.813 44.1157 120.401 42.7137 117.966 L48.2449 107.779 Z M46.8387 179.685 L46.8387 186.966 L54.8074 186.966 L54.8074 179.685 L46.8387 179.685 Z M6.36991 179.998 L6.36991 220.185 L14.2137 220.185 L14.2137 191.216 L30.7762 220.185 L39.1512 220.185 L39.1512 179.998 L31.3074 179.998 L31.3074 208.185 L15.1512 179.998 L6.36991 179.998 Z M81.0574 179.998 L81.0574 220.185 L88.9012 220.185 L88.9012 185.654 L96.4324 220.185 L104.682 220.185 L112.214 186.404 L112.214 220.185 L120.057 220.185 L120.057 179.998 L107.901 179.998 L100.682 211.841 L93.3699 179.998 L81.0574 179.998 Z M127.87 179.998 L127.87 220.185 L136.276 220.185 L136.276 201.966 L151.995 201.966 L151.995 220.185 L160.37 220.185 L160.37 179.998 L151.995 179.998 L151.995 195.06 L136.276 195.06 L136.276 179.998 L127.87 179.998 Z M46.9012 190.435 L46.9012 220.185 L54.7449 220.185 L54.7449 190.435 L46.9012 190.435 Z M59.9949 200.81 L59.9949 208.185 L75.6512 208.185 L75.6512 200.81 L59.9949 200.81 Z"/>
  </g>
 </g>
</svg>
